<?xml version="1.0" encoding="utf-8"?>
<!-- Generator: Adobe Illustrator 18.0.0, SVG Export Plug-In . SVG Version: 6.00 Build 0)  -->
<!DOCTYPE svg PUBLIC "-//W3C//DTD SVG 1.1//EN" "http://www.w3.org/Graphics/SVG/1.1/DTD/svg11.dtd">
<svg version="1.1" id="Layer_1" xmlns="http://www.w3.org/2000/svg" xmlns:xlink="http://www.w3.org/1999/xlink" x="0px" y="0px"  width="75%"
   viewBox="0 0 182 429" enable-background="new 0 0 182 429" xml:space="preserve">
<path fill="#E3E0D1" d="M56.6,175.4c1.5,0.3,2.7,0.6,3.8,0.6c2.7,0.1,5.3,0.3,8,0.8c4,0.8,8.1,1.4,12.2,1.4c1.9,0,3-0.8,3.2-2.7
  c0.4-2.9,0.7-5.8,1-8.7c0.2-2.2,0.5-2.7,2.7-3.2c0.9-0.2,2-0.2,2.9-0.5c3.4-1.1,6.8-2.2,10.3-3.3c1.5-0.4,2.8-1.1,3.8-2.3
  c2.2-2.5,4.4-4.9,6.5-7.5c1.3-1.6,2.1-3.5,2-5.8c-0.2-3.5-0.5-7-2-10.3c-0.8-1.8-1.1-3.7-2.5-5.3c-1.5-1.8-2.9-3.6-4.5-5.4
  c-0.6-0.6-1.4-1.2-2.2-1.5c-2.8-0.9-5.5-2-8.4-2.5c-3.5-0.7-7-0.4-9.8,2.1c-3.1,2.7-6,5.7-9,8.5c-0.3,0.2-0.4,0.6-0.5,1
  c-1.6,4.3-3.7,8.4-4.3,13c-0.4,3-1.2,5.9-1.5,8.9c-0.4,3.9-0.5,7.8-3.8,10.6c-0.4,0.4-0.7,1-1,1.5c-1.9,2.9-3.9,5.7-5.8,8.6
  C57.3,174,57.1,174.6,56.6,175.4z"/>
<polygon fill="#E3E0D1" points="48.8,176.6 25.6,96.1 8.7,1.1 17,0.6 33,94 54.1,174.5 "/>
<path fill="#E3E0D1" d="M110.7,236c-0.1-4.9-0.1-9.7-0.6-14.6c-0.8-8.3-1-16.7-1.5-25c-0.1-1.7-0.3-3.4-0.6-5.1
  c-0.1-0.7-0.4-1.2-0.2-2.1c0.5-1.5,0-2.3-1.6-2.9c-3-1.2-6.1-2.6-9.2-3.6c-2.5-0.9-5.1-1.8-7.9-1.4c-1,0.2-2.1,0.4-3.1,0.3
  c-5-0.2-10,0.3-15,0.9c-4.3,0.5-8.7,0.7-13,0.9c-3.5,0.1-6.9,0-10.4,0c-2.1,0-4.2,0.3-6.7,0.4c0.2,2.2,0.5,4.1,0.6,5.9
  c0.3,7.6-0.5,15.2,0.4,22.8c0.5,4.5-0.1,9,0.5,13.5c0.4,3.4,0.5,6.9,0.5,10.3c0,4.4,0.7,8.8,0.8,13.2c0.2,4.9,0.7,9.7,1,14.6
  c0,0.3,0,0.5,0.1,0.8c0,0.1,0,0.3,0,0.4c0.5,2.4,2.1,4.3,4.1,5.7c0,0,0.1,0.1,0.1,0.1c0,0,0.1,0,0.1,0.1c3.2,1.7,6.8,1.8,10.4,2.1
  c3.9,0.3,7.8,0.5,11.7,0.8c2.5,0.4,5.1,0.8,7.6,1.1c1.9,0.2,3.9,0,5.8-0.2c1-0.1,2-0.4,3.1-0.5c2-0.1,3.9,0,5.9,0
  c0.7,0,1.3,0.2,2,0.3c1.3,0.1,2.7,0.3,4,0.3c1.7,0,3.4-0.1,5.1-0.1c0.4,0,1,0.2,1.3-0.1c1.7-1.3,3.3-2.8,3.7-4.9
  c0.4-2.4,0.4-4.9,0.5-7.4c0.1-3.3,0.2-6.6,0.3-9.9c0-0.4,0.2-0.9,0.2-1.3c0.1-1,0.4-2.1,0.4-3.1C111,244.1,110.8,240,110.7,236z"/>
</svg>