<?xml version="1.0" encoding="utf-8"?>
<!-- Generator: Adobe Illustrator 18.0.0, SVG Export Plug-In . SVG Version: 6.00 Build 0)  -->
<!DOCTYPE svg PUBLIC "-//W3C//DTD SVG 1.1//EN" "http://www.w3.org/Graphics/SVG/1.1/DTD/svg11.dtd">
<svg version="1.1" id="Layer_1" xmlns="http://www.w3.org/2000/svg" xmlns:xlink="http://www.w3.org/1999/xlink" x="0px" y="0px"  width="75%"
	 viewBox="0 0 182 429" enable-background="new 0 0 182 429" xml:space="preserve">
<path fill="#E3E0D1" d="M56.6,175.4c1.5,0.3,2.7,0.6,3.8,0.6c2.7,0.1,5.3,0.3,8,0.8c4,0.8,8.1,1.4,12.2,1.4c1.9,0,3-0.8,3.2-2.7
	c0.4-2.9,0.7-5.8,1-8.7c0.2-2.2,0.5-2.7,2.7-3.2c0.9-0.2,2-0.2,2.9-0.5c3.4-1.1,6.8-2.2,10.3-3.3c1.5-0.4,2.8-1.1,3.8-2.3
	c2.2-2.5,4.4-4.9,6.5-7.5c1.3-1.6,2.1-3.5,2-5.8c-0.2-3.5-0.5-7-2-10.3c-0.8-1.8-1.1-3.7-2.5-5.3c-1.5-1.8-2.9-3.6-4.5-5.4
	c-0.6-0.6-1.4-1.2-2.2-1.5c-2.8-0.9-5.5-2-8.4-2.5c-3.5-0.7-7-0.4-9.8,2.1c-3.1,2.7-6,5.7-9,8.5c-0.3,0.2-0.4,0.6-0.5,1
	c-1.6,4.3-3.7,8.4-4.3,13c-0.4,3-1.2,5.9-1.5,8.9c-0.4,3.9-0.5,7.8-3.8,10.6c-0.4,0.4-0.7,1-1,1.5c-1.9,2.9-3.9,5.7-5.8,8.6
	C57.3,174,57.1,174.6,56.6,175.4z"/>
<polygon fill="#E3E0D1" points="48.8,176.6 25.6,96.1 8.7,1.1 17,0.6 33,94 54.1,174.5 "/>
<path fill="#E3E0D1" d="M110.7,236c-0.1-4.9-0.1-9.7-0.6-14.6c-0.8-8.3-1-16.7-1.5-25c-0.1-1.7-0.3-3.4-0.6-5.1
	c-0.1-0.7-0.4-1.2-0.2-2.1c0.5-1.5,0-2.3-1.6-2.9c-3-1.2-6.1-2.6-9.2-3.6c-2.5-0.9-5.1-1.8-7.9-1.4c-1,0.2-2.1,0.4-3.1,0.3
	c-5-0.2-10,0.3-15,0.9c-4.3,0.5-8.7,0.7-13,0.9c-3.5,0.1-6.9,0-10.4,0c-2.1,0-4.2,0.3-6.7,0.4c0.2,2.2,0.5,4.1,0.6,5.9
	c0.3,7.6-0.5,15.2,0.4,22.8c0.5,4.5-0.1,9,0.5,13.5c0.4,3.4,0.5,6.9,0.5,10.3c0,4.4,0.7,8.8,0.8,13.2c0.2,4.9,0.7,9.7,1,14.6
	c0,0.3,0,0.5,0.1,0.8c0,0.1,0,0.3,0,0.4c0.5,2.4,2.1,4.3,4.1,5.7c0,0,0.1,0.1,0.1,0.1c0,0,0.1,0,0.1,0.1c3.2,1.7,6.8,1.8,10.4,2.1
	c3.9,0.3,7.8,0.5,11.7,0.8c2.5,0.4,5.1,0.8,7.6,1.1c1.9,0.2,3.9,0,5.8-0.2c1-0.1,2-0.4,3.1-0.5c2-0.1,3.9,0,5.9,0
	c0.7,0,1.3,0.2,2,0.3c1.3,0.1,2.7,0.3,4,0.3c1.7,0,3.4-0.1,5.1-0.1c0.4,0,1,0.2,1.3-0.1c1.7-1.3,3.3-2.8,3.7-4.9
	c0.4-2.4,0.4-4.9,0.5-7.4c0.1-3.3,0.2-6.6,0.3-9.9c0-0.4,0.2-0.9,0.2-1.3c0.1-1,0.4-2.1,0.4-3.1C111,244.1,110.8,240,110.7,236z"/>
<path fill="#E3E0D1" d="M120.9,345.1c-0.1-2.6-0.5-5.2-0.6-7.9c-0.2-2.7-0.2-5.4-0.3-8.1c-0.2-3.7-0.3-7.4-0.6-11
	c-0.3-3.3-0.9-6.6-1.4-9.8c-0.2-1.3-0.4-2.7-0.7-4c-0.8-3.4-1.7-6.8-2.6-10.2c-0.9-3.5-1.7-7-2.6-10.5c-0.4-1.6-1.4-2.8-3-3.3
	c-2.1-0.7-4.2-1.3-6.1-2.3c-1.6-0.8-3.1-1.1-4.8-0.7c-4.3,0.9-8.7,1.6-13,2.9c-2.8,0.9-5.2,2.7-5.7,6.1c-0.3,2.1-0.7,4.2-0.9,6.2
	c-0.4,4.6-1.2,9.2-0.7,13.9c0.2,2.1,0.2,4.3-0.2,6.3c-0.5,2.2-0.1,4.2,0.4,6.2c1.3,5.6,2.9,11,4,16.6c1,4.6,2.5,9.1,3.9,13.6
	c0.6,1.9,1.2,3.8,1.8,5.6c0.9,0.1,1.5,0.1,1.8,0.2l14.9-2.4l16.2-5.5C120.8,346.4,120.9,345.8,120.9,345.1z"/>
<path fill="#E3E0D1" d="M145.2,426.8c-2.3-1.4-4.7-2.7-7-4.1c-2.8-1.8-5.6-3.8-8.3-5.7c-1-0.7-1.3-1.7-1.6-2.9
	c-1.4-6.8-2.8-13.7-4.3-20.5c-0.9-4.1-1.8-8.2-1.7-12.5c0.3-6.5,0.3-13.1,0.5-19.6c0-0.4,0.1-0.9,0.1-1.3c0.1-1.6,0.2-3.1,0.2-4.7
	c0.1-1.1-0.5-1.7-1.6-1.7c-0.6-0.1-1.3-0.1-2-0.2c0,0,0,0,0,0l-22.4,4l-8.4-0.7c0.1,0.2,0.1,0.4,0.2,0.6c0.1,0.4,0.3,0.9,0.3,1.3
	c1.1,5.4,2.1,10.7,3.3,16.1c1.1,5.3,2.4,10.5,3.6,15.8c1,4.8,2,9.5,3,14.3c0.5,2.6,1.1,5.1,1.6,7.7c0.8,4.6,1.6,9.2,2.3,13.8
	c0.2,1.2,1,1.8,2.2,1.8c0.6,0,1.2,0,1.8,0c6.8,0.2,13.7-0.3,20.5,0.3c5.6,0.5,11.3,0.4,16.9,0.5c0.7,0,1.4-0.1,2.2-0.1
	c0.1-0.2,0.2-0.4,0.3-0.6C146.4,427.8,145.8,427.2,145.2,426.8z"/>
<path fill="#E3E0D1" d="M167.6,247.8c-0.5-5.1-0.8-10.2-1.5-15.2c-0.8-5.9-1.7-11.7-2.7-17.6c-0.3-1.8-0.6-3.6-1.5-5.1
	c-1.1-1.9-2.7-3.6-4.2-5.3c-2.3-2.7-4.8-5.4-7.1-8.2c-4.5-5.7-9.4-11-14.9-15.6c-0.6-0.5-1.6-0.9-2.4-1c-2.2-0.1-4.4,0-6.6,0
	c-1,0-1.7,0.3-2.3,1.1c-4,4.8-8,9.5-11.2,15c-0.1,0.3-0.3,0.5-0.5,0.7c-1.7,1.6-1.6,3.5-0.5,5.3c1.8,2.9,3.6,5.9,5.6,8.7
	c4.3,5.9,8.8,11.6,13.3,17.4c2.8,3.7,5.6,7.4,8.4,11.2c3.6,4.8,7.2,9.7,10.7,14.6c1.6,2.2,2.6,4.7,3.2,7.4c0,0,0,0,0,0l10.2-2.5
	l4.9-2.3C168.2,253.5,167.9,250.7,167.6,247.8z"/>
<path fill="#E3E0D1" d="M179.4,278.9c-1.1-1.9-2.3-3.7-3.4-5.6c-0.8-1.3-1.8-2.5-2.7-3.8c0.1-0.2,0.2-0.3,0.3-0.5
	c1.4,0.3,2.9,0.7,4.3,1c1.1,0.2,2.2-0.4,2.5-1.4c0.4-1.2-0.4-1.6-1.3-2c-0.8-0.3-1.5-0.7-2.3-1c-2.2-0.7-3.7-2.2-5.3-3.7
	c-0.3-0.3-0.5-0.7-0.7-1.1l-10.3,1.7l-5.1,2.1c0.2,2.4-0.4,3.2-3.1,4.2c-0.4,0.2-0.9,0.3-1.3,0.5c-2.6,1.3-5.2,2.6-5.5,6
	c0,0.3-0.1,0.9,0.1,1c0.3,0.2,0.8,0.2,1.2,0.1c3-0.9,6-1.9,9-2.8c1.5-0.4,2.1,0,1.9,1.5c-0.4,3.9,0.4,7.6,0.7,11.4
	c0.1,1,0.5,2,0.9,3c0.4,0.9,1.2,1.4,2.2,1.2c1-0.1,1.6-0.9,1.6-1.9c0.1-0.7,0-1.5,0-2.3c0.1-2.4,0.1-4.8,0.3-7.2
	c0-0.5,0.4-0.9,0.7-1.5c0.5,0.4,0.9,0.7,1,1c0.3,0.9,0.6,1.9,0.8,2.8c0.3,1.4,0.5,2.8,0.7,4.2c0.3,1.3,1.2,1.9,2.5,1.8
	c1.2-0.1,1.4-0.9,1.4-1.9c0-1.4,0-2.7,0-4.1c0-1.6-0.4-3.3,0.8-4.9c2.8,2,3.8,5.2,6,7.4C179.8,282.8,180.4,280.8,179.4,278.9z"/>
<path fill="#E3E0D1" d="M36.4,359c-0.3,4.2-0.6,8.4-0.9,12.6c-0.1,1.6-0.2,3.1-0.3,4.7c-0.1,2.8-0.1,5.6-0.3,8.3
	c-0.3,4.7-0.6,9.4-0.9,14.1c-0.2,4-0.4,8.1-0.6,12.1c0,0.9-0.4,1.6-1.2,2c-2.5,1.1-5,2.3-7.6,3.4c-3,1.2-6,2.3-9,3.5
	c-0.6,0.2-1.2,0.5-0.9,1.2c0.1,0.3,0.9,0.5,1.3,0.5c2.5-0.4,4.9,0,7.4,0.3c5.4,0.8,10.8,1.6,16.2,2.4c2.2,0.3,4.4,0.7,6.7,1
	c1.4,0.2,3.1,0.7,4.2,0.2c2.1-1,4.2-2.5,5-5c1-3.3,1.9-6.7,2.8-10c0.6-2.3,1.2-4.5,1.6-6.8c0.8-4.7,1.4-9.5,2.2-14.3
	c0.9-5.4,1.9-10.8,2.8-16.2c0.9-5.3,1.6-13.6,2.4-18.9L56,357.5l-15.4,1.3l-4.1-0.6C36.4,358.5,36.4,358.8,36.4,359z"/>
<path fill="#E3E0D1" d="M75.7,288.2c-0.2-2.6-1.1-5.1-1.7-7.7c-0.2-0.9-0.8-1.4-1.6-1.7c-2.6-0.7-5.2-1.5-7.8-2.1
	c-2.2-0.5-4.4-0.9-6.8-1.3c-1.2,0.4-2.4,0.8-3.7,1.2c-2.5,0.8-5,1.5-7.5,2.3c-0.9,0.3-1.9,0.5-2.8,0.9c-1.2,0.5-1.9,1.4-1.8,2.8
	c0.1,1,0,2-0.1,2.9c-0.4,4.1-0.8,8.2-1.2,12.3c-0.3,3.5-0.7,7-1,10.5c-0.3,2.5-0.6,5.1-0.8,7.6c-0.2,2.5-0.3,4.9-0.5,7.4
	c-0.4,4.6-0.9,9.1-1.3,13.7c-0.1,1.6-0.3,3.1-0.4,4.7c-0.2,2.8-0.3,5.5-0.5,8.3c-0.1,1.4-0.2,2.9-0.3,4.3l5.2,1.1l7.3-0.1l10.5-1.6
	l8.1-0.7c0-0.2,2.1-11.5,3-17.6c0.7-4.6,1.3-9.2,1.9-13.8c0.3-2.1,0.6-4.2,0.8-6.3c0.6-5.4,1.2-10.9,1.8-16.3
	c0.1-1.1,0.5-2.2,0.7-3.3C75.4,293.1,75.9,290.6,75.7,288.2z"/>
<path fill="#E3E0D1" d="M8.5,278.2c0,1.2-0.3,2.1-1.2,3c-2.1,2-4.1,4-6.1,6.1c-1.8,1.8-1.7,2.5,0.6,4.3c1.4-1,2.9-2.1,4.3-3.2
	c1.4-1.1,2.6-2.6,4.8-3.3c-0.5,1.3-0.8,2.2-1.1,3c-1,2.6-2.2,5.1-3.1,7.7c-0.8,2.2-0.6,2.3,1.6,4c0.8-1.1,1.5-2.2,2.3-3.3
	c0.8-1.1,1.5-2.3,2.3-3.3c0.8-1,1.1-2.4,2.8-3.2c0,3.7,0,7.1,0,10.8c0.7-0.3,1.1-0.6,1.5-0.6c1.5-0.1,1.8-1,2.2-2.4
	c0.8-3,1.2-6,1.2-9.1c0-0.7,0.1-1.4,0.1-2.1c0.1,0,0.3,0,0.4-0.1c2.3,3.3,4.6,6.5,6.9,9.8c1.4-0.6,1.6-0.6,1.6-1.5
	c0-0.7-0.1-1.5-0.4-2.2c-1.5-4.2-3-8.3-4.5-12.5c-0.3-0.8-0.4-1.7-0.7-2.6c3.4-0.6,6.3,1.3,9.9,0.8c-0.4-0.9-0.5-1.8-1-2.3
	c-1.9-1.9-3.9-3.8-6.4-4.8c-1.9-0.8-2.9-1.6-3.2-2.9l-9.9,2.4l-4.7,0.1C8.6,273.4,8.5,275.8,8.5,278.2z"/>
<path fill="#E3E0D1" d="M23.5,264.3c0-0.2,0.1-0.4,0.2-0.7c0.5-2.1,1-4.2,1.5-6.3c0.8-3.8,1.5-7.7,2.5-11.4c1.3-5,2.7-9.8,4.1-14.8
	c1.8-6.4,3.6-12.8,5.3-19.1c1.5-5.8,1.1-11.3-1.9-16.6c-1.3-2.4-2.5-4.9-4.2-6.9c-2.3-2.7-4.9-5.3-7.7-7.6c-1.9-1.6-3.9-0.8-4.5,1.6
	c-1,4.1-1.8,8.2-2.6,12.3c-0.6,3.2-1,6.5-1.6,9.8c-0.6,3.4-1.6,6.7-1.6,10.2c0,0.4-0.1,0.9-0.2,1.3c-0.9,4-1.8,8.1-1.6,12.2
	c0,0.4-0.1,0.9-0.1,1.3c-0.3,2.8-0.5,5.5-0.8,8.3c-0.1,1.2,0,2.4-0.1,3.6c-0.3,4.1-0.6,8.2-0.8,12.3c-0.1,3.2,0.2,6.3-0.1,9.5
	c-0.2,1.7-0.4,3.5-0.5,5.2l9.8-1l4.7-1.5C23.3,265.5,23.4,264.9,23.5,264.3z"/>
</svg>
